<mxfile host="app.diagrams.net" modified="2020-09-04T01:14:25.883Z" agent="5.0 (Macintosh; Intel Mac OS X 10_15_6) AppleWebKit/537.36 (KHTML, like Gecko) Chrome/85.0.4183.83 Safari/537.36" etag="Bf9a3xME3Cvwxg_2hsWs" version="13.6.6" type="github">
  <diagram id="x6xK8HQp3tTx6gFSgic1" name="Page-1">
    <mxGraphModel dx="946" dy="622" grid="1" gridSize="10" guides="1" tooltips="1" connect="1" arrows="1" fold="1" page="1" pageScale="1" pageWidth="827" pageHeight="1169" math="0" shadow="0">
      <root>
        <mxCell id="0" />
        <mxCell id="1" parent="0" />
        <mxCell id="Mxkez8orUy1rc7784fdJ-1" value="" style="whiteSpace=wrap;html=1;aspect=fixed;" vertex="1" parent="1">
          <mxGeometry x="370" y="370" width="80" height="80" as="geometry" />
        </mxCell>
        <mxCell id="Mxkez8orUy1rc7784fdJ-2" value="" style="whiteSpace=wrap;html=1;aspect=fixed;fillColor=#dae8fc;strokeColor=#6c8ebf;" vertex="1" parent="1">
          <mxGeometry x="120" y="135" width="550" height="550" as="geometry" />
        </mxCell>
        <mxCell id="Mxkez8orUy1rc7784fdJ-3" value="" style="rounded=0;whiteSpace=wrap;html=1;fillColor=#f5f5f5;strokeColor=#666666;fontColor=#333333;" vertex="1" parent="1">
          <mxGeometry x="150" y="280" width="220" height="260" as="geometry" />
        </mxCell>
        <mxCell id="Mxkez8orUy1rc7784fdJ-4" value="App Component" style="text;html=1;strokeColor=none;fillColor=none;align=center;verticalAlign=middle;whiteSpace=wrap;rounded=0;" vertex="1" parent="1">
          <mxGeometry x="310" y="150" width="100" height="20" as="geometry" />
        </mxCell>
        <mxCell id="Mxkez8orUy1rc7784fdJ-5" value="Application Header&amp;nbsp;&lt;br&gt;Component&lt;br&gt;" style="rounded=0;whiteSpace=wrap;html=1;fillColor=#fff2cc;strokeColor=#d6b656;" vertex="1" parent="1">
          <mxGeometry x="300" y="180" width="120" height="60" as="geometry" />
        </mxCell>
        <mxCell id="Mxkez8orUy1rc7784fdJ-6" value="ListItem Component" style="rounded=0;whiteSpace=wrap;html=1;" vertex="1" parent="1">
          <mxGeometry x="160" y="480" width="180" height="30" as="geometry" />
        </mxCell>
        <mxCell id="Mxkez8orUy1rc7784fdJ-7" value="ListItem Component" style="rounded=0;whiteSpace=wrap;html=1;" vertex="1" parent="1">
          <mxGeometry x="160" y="440" width="180" height="30" as="geometry" />
        </mxCell>
        <mxCell id="Mxkez8orUy1rc7784fdJ-8" value="List Item Component" style="rounded=0;whiteSpace=wrap;html=1;" vertex="1" parent="1">
          <mxGeometry x="160" y="400" width="180" height="30" as="geometry" />
        </mxCell>
        <mxCell id="Mxkez8orUy1rc7784fdJ-10" value="List Component" style="text;html=1;strokeColor=none;fillColor=none;align=center;verticalAlign=middle;whiteSpace=wrap;rounded=0;" vertex="1" parent="1">
          <mxGeometry x="205" y="290" width="110" height="20" as="geometry" />
        </mxCell>
        <mxCell id="Mxkez8orUy1rc7784fdJ-13" style="edgeStyle=orthogonalEdgeStyle;rounded=0;orthogonalLoop=1;jettySize=auto;html=1;entryX=0.995;entryY=0.377;entryDx=0;entryDy=0;entryPerimeter=0;" edge="1" parent="1" source="Mxkez8orUy1rc7784fdJ-11" target="Mxkez8orUy1rc7784fdJ-3">
          <mxGeometry relative="1" as="geometry">
            <mxPoint x="300" y="345" as="targetPoint" />
          </mxGeometry>
        </mxCell>
        <mxCell id="Mxkez8orUy1rc7784fdJ-11" value="TextInput Component" style="rounded=0;whiteSpace=wrap;html=1;fillColor=#ffe6cc;strokeColor=#d79b00;" vertex="1" parent="1">
          <mxGeometry x="490" y="280" width="150" height="100" as="geometry" />
        </mxCell>
        <mxCell id="Mxkez8orUy1rc7784fdJ-14" value="Input as props" style="text;html=1;strokeColor=none;fillColor=none;align=center;verticalAlign=middle;whiteSpace=wrap;rounded=0;" vertex="1" parent="1">
          <mxGeometry x="410" y="300" width="80" height="20" as="geometry" />
        </mxCell>
        <mxCell id="Mxkez8orUy1rc7784fdJ-16" value="" style="endArrow=classic;html=1;entryX=0.5;entryY=0;entryDx=0;entryDy=0;" edge="1" parent="1" target="Mxkez8orUy1rc7784fdJ-11">
          <mxGeometry width="50" height="50" relative="1" as="geometry">
            <mxPoint x="350" y="260" as="sourcePoint" />
            <mxPoint x="440" y="340" as="targetPoint" />
            <Array as="points">
              <mxPoint x="565" y="260" />
            </Array>
          </mxGeometry>
        </mxCell>
        <mxCell id="Mxkez8orUy1rc7784fdJ-17" value="" style="endArrow=classic;html=1;exitX=0.5;exitY=1;exitDx=0;exitDy=0;entryX=0.5;entryY=0;entryDx=0;entryDy=0;" edge="1" parent="1" source="Mxkez8orUy1rc7784fdJ-5" target="Mxkez8orUy1rc7784fdJ-3">
          <mxGeometry width="50" height="50" relative="1" as="geometry">
            <mxPoint x="390" y="390" as="sourcePoint" />
            <mxPoint x="440" y="340" as="targetPoint" />
            <Array as="points">
              <mxPoint x="360" y="260" />
              <mxPoint x="260" y="260" />
            </Array>
          </mxGeometry>
        </mxCell>
        <mxCell id="Mxkez8orUy1rc7784fdJ-23" value="" style="edgeStyle=orthogonalEdgeStyle;rounded=0;orthogonalLoop=1;jettySize=auto;html=1;entryX=1.018;entryY=0.554;entryDx=0;entryDy=0;entryPerimeter=0;" edge="1" parent="1" source="Mxkez8orUy1rc7784fdJ-21" target="Mxkez8orUy1rc7784fdJ-3">
          <mxGeometry relative="1" as="geometry">
            <Array as="points">
              <mxPoint x="470" y="424" />
              <mxPoint x="470" y="424" />
            </Array>
          </mxGeometry>
        </mxCell>
        <mxCell id="Mxkez8orUy1rc7784fdJ-21" value="Delete Component" style="rounded=0;whiteSpace=wrap;html=1;" vertex="1" parent="1">
          <mxGeometry x="530" y="400" width="110" height="40" as="geometry" />
        </mxCell>
        <mxCell id="Mxkez8orUy1rc7784fdJ-26" style="edgeStyle=orthogonalEdgeStyle;rounded=0;orthogonalLoop=1;jettySize=auto;html=1;entryX=0.995;entryY=0.808;entryDx=0;entryDy=0;entryPerimeter=0;" edge="1" parent="1" source="Mxkez8orUy1rc7784fdJ-22" target="Mxkez8orUy1rc7784fdJ-3">
          <mxGeometry relative="1" as="geometry" />
        </mxCell>
        <mxCell id="Mxkez8orUy1rc7784fdJ-22" value="Edit Component" style="rounded=0;whiteSpace=wrap;html=1;" vertex="1" parent="1">
          <mxGeometry x="530" y="470" width="110" height="40" as="geometry" />
        </mxCell>
      </root>
    </mxGraphModel>
  </diagram>
</mxfile>
